<?xml version="1.0" encoding="UTF-8"?>
<svg id="Layer_5" xmlns="http://www.w3.org/2000/svg" xmlns:xlink="http://www.w3.org/1999/xlink" viewBox="0 0 256 256">
  <defs>
    <style>
      .cls-1 {
        fill: url(#linear-gradient-3);
      }

      .cls-2 {
        fill: url(#linear-gradient-2);
      }

      .cls-3 {
        fill: #c66802;
      }

      .cls-4 {
        fill: url(#linear-gradient);
      }

      .cls-5 {
        fill: #fff;
      }

      .cls-6 {
        fill: #326ce5;
      }
    </style>
    <linearGradient id="linear-gradient" x1="158.05" y1="118.48" x2="158.05" y2="191.68" gradientUnits="userSpaceOnUse">
      <stop offset="0" stop-color="#fcee21"/>
      <stop offset="1" stop-color="#f58f00"/>
    </linearGradient>
    <linearGradient id="linear-gradient-2" x1="128.43" y1="113.35" x2="128.43" y2="180.07" xlink:href="#linear-gradient"/>
    <linearGradient id="linear-gradient-3" x1="119.87" y1="80.58" x2="126.93" y2="134.07" gradientUnits="userSpaceOnUse">
      <stop offset=".01" stop-color="#fcee21"/>
      <stop offset=".99" stop-color="#f58f00"/>
    </linearGradient>
  </defs>
  <g id="KTE-mark">
    <polygon class="cls-5" points="59.19 72.78 126.1 39.74 195.56 71.93 214.94 147.35 165.42 209.54 90.86 209.82 41.92 147.35 59.19 72.78"/>
    <g>
      <path class="cls-4" d="M159.19,207.25c.06-.63.11-1.26.14-1.9l-2.55,1.21,2.41.69Z"/>
      <path class="cls-2" d="M165.42,209.54l49.52-62.18c-21.67-.48-31.22-25.8-80.82-25.32-49.6.48-45.06,25.14-92.19,25.32l48.94,62.47,74.56-.29Z"/>
    </g>
    <g id="layer1">
      <g id="g3052">
        <path id="path3055" class="cls-6" d="M127.98,47.05l64.51,30.8,15.89,69.04-44.55,55.42-71.65.02-44.57-55.41,15.87-69.04,64.5-30.82M127.98,32.92c-.21,0-.43,0-.64.02-1.67.08-3.31.5-4.82,1.22l-65.71,31.39c-3.44,1.65-5.95,4.76-6.8,8.45l-16.21,70.52c-.76,3.28-.14,6.73,1.71,9.55.22.34.46.67.71.99l45.48,56.55c2.38,2.96,6,4.69,9.82,4.69h0l72.93-.02h0c3.82,0,7.43-1.72,9.81-4.68l45.46-56.55c2.39-2.97,3.28-6.85,2.43-10.55l-16.24-70.52c-.85-3.7-3.35-6.81-6.8-8.45l-65.71-31.38c-1.7-.81-3.57-1.23-5.45-1.23h0Z"/>
      </g>
    </g>
    <path class="cls-3" d="M76.47,140.72l-.1.04c24.13-18.16,99.34-5.14,99.34-5.14l.66.72s-53.55-7.84-99.89,4.37Z"/>
    <path class="cls-1" d="M175.72,135.62c-3.75-1.46-6.32-11.17-7.42-15.96-1.11-4.83-3.07-9.25-5.68-13.14.31-.29.91-.81,1.08-.97.05-.54,0-1.12.57-1.72,1.19-1.12,2.7-2.05,4.51-3.17.86-.51,1.66-.83,2.52-1.47.2-.14.46-.37.67-.54,1.46-1.16,1.79-3.16.75-4.47-1.04-1.31-3.07-1.43-4.52-.27-.21.16-.49.38-.67.54-.81.7-1.32,1.39-2,2.12-1.5,1.52-2.73,2.79-4.09,3.7-.59.34-1.45.22-1.84.2l-1.15.82c-6.58-6.9-15.54-11.31-25.18-12.17-.03-.4-.06-1.13-.07-1.35-.39-.38-.87-.7-.99-1.52-.13-1.63.09-3.39.34-5.5.14-.99.37-1.81.41-2.88,0-.24,0-.6,0-.86,0-1.86-1.36-3.37-3.03-3.37-1.68,0-3.03,1.51-3.03,3.37,0,.03,0,.06,0,.08,0,.25-.01.56,0,.78.04,1.07.27,1.9.41,2.88.26,2.12.47,3.87.34,5.5-.13.62-.58,1.18-.99,1.57l-.07,1.28c-1.82.15-3.65.43-5.48.84-7.88,1.79-14.66,5.85-19.82,11.32-.34-.23-.92-.65-1.1-.78-.54.07-1.09.24-1.8-.18-1.36-.91-2.59-2.18-4.09-3.69-.69-.73-1.18-1.42-2-2.12-.18-.16-.47-.37-.67-.54-.64-.51-1.39-.77-2.11-.8-.93-.03-1.83.33-2.42,1.07-1.04,1.31-.71,3.31.75,4.47.01.01.03.02.05.03.2.16.44.37.63.51.86.64,1.65.96,2.52,1.47,1.81,1.12,3.32,2.05,4.51,3.17.47.5.55,1.37.61,1.75l.97.87c-3.19,4.8-7.04,12.49-7.37,19.1-.27,5.39-.69,7.03-4.39,9.36,0,0-5.4,2.66-8.95,5.78,17.08-12.26,66.81-9.47,99.34-5.14ZM160.53,121.43c.53,2.31,1.26,4.15.55,5.69-.35.75-1.37,1.53-2.66,1.61l-12.58-1.55v-.06c-1.39-.38-2.23-1.77-1.91-3.18.13-.57.44-1.06.85-1.42v-.03s11.84-10.6,11.84-10.6c1.77,2.87,3.11,6.07,3.91,9.55ZM151.87,105.94l-12.96,9.19-.05-.02c-1.15.84-2.77.63-3.67-.49-.37-.46-.56-1-.58-1.55h-.01s-.9-15.89-.9-15.89c6.9.85,13.28,3.97,18.18,8.76ZM122.86,97.73c1.08-.25,2.16-.43,3.23-.56l-.9,15.91-.06.03c-.06,1.42-1.23,2.56-2.67,2.56-.59,0-1.13-.19-1.58-.51h-.03s-13.05-9.24-13.05-9.24c4.01-3.94,9.14-6.86,15.05-8.2ZM98.64,125.04s-.11-7.23,4.44-13.17l11.9,10.72c1.08.93.97,1.72.29,2.99-.44.82-1.73.86-1.73.86l-11.8,1.19c-2.81.5-3.09-2.59-3.09-2.59Z"/>
  </g>
</svg>